<svg id="Capa_2" data-name="Capa 2" xmlns="http://www.w3.org/2000/svg" viewBox="0 0 80 80"><defs><style>.cls-1{fill:#fff;}</style></defs><title>Mesa de trabajo 3 copia 2</title><path class="cls-1" d="M9,37.21a2.8,2.8,0,0,1,2.51-1.94,11.43,11.43,0,0,0,3.87-1.09,6.62,6.62,0,0,0,2.42-9c-.48-.81-1-1.59-1.55-2.38a2.31,2.31,0,0,1,.31-3.17q1.52-1.53,3-3a2.3,2.3,0,0,1,3.17-.31c.76.5,1.5,1,2.28,1.49a6.58,6.58,0,0,0,9.86-4.34c.14-.67.29-1.33.39-2A2.68,2.68,0,0,1,37.21,9h5.58a2.74,2.74,0,0,1,1.92,2.39,14.59,14.59,0,0,0,.67,2.94,14.15,14.15,0,0,0,1.44,2.34,6.79,6.79,0,0,0,.6.6.89.89,0,0,1,0,1.26.84.84,0,0,1-1.25,0,17,17,0,0,1-2-2.34,11.94,11.94,0,0,1-1.33-4.42c-.21-1-.2-1-1.22-1H38.13c-.78,0-.86.08-1,.86a24,24,0,0,1-.81,3.4,8.38,8.38,0,0,1-12.52,4c-.66-.42-1.32-.86-2-1.3a.66.66,0,0,0-1,.09c-1,1-2,2-2.95,2.95a.68.68,0,0,0-.08,1c.5.73,1,1.46,1.46,2.23a8.4,8.4,0,0,1-5.68,12.66c-.67.13-1.34.28-2,.39a.79.79,0,0,0-.77.93c0,1.29,0,2.59,0,3.88,0,.62.26.85.82,1a23.55,23.55,0,0,1,3.46.82,8.38,8.38,0,0,1,4,12.52c-.42.66-.86,1.32-1.3,2a.67.67,0,0,0,.09,1c1,1,2,2,2.95,3,.36.37.67.29,1.06,0A43.78,43.78,0,0,1,25.76,60a6.76,6.76,0,0,1,4-.35c.62.11,1,.5.91,1a.9.9,0,0,1-1.09.79A7.3,7.3,0,0,0,23.91,63a12,12,0,0,1-1.59,1,2,2,0,0,1-2.42-.29Q18,62,16.3,60.09a2.13,2.13,0,0,1-.15-2.69c.43-.7.91-1.38,1.36-2.07a6.57,6.57,0,0,0-4.28-10.26c-.61-.13-1.22-.28-1.84-.37A2.67,2.67,0,0,1,9,42.79Z"/><path class="cls-1" d="M71,42.79a2.8,2.8,0,0,1-2.51,1.94,11.43,11.43,0,0,0-3.87,1.09,6.62,6.62,0,0,0-2.42,9c.48.81,1,1.59,1.55,2.38a2.31,2.31,0,0,1-.31,3.17q-1.52,1.53-3,3a2.3,2.3,0,0,1-3.17.31c-.76-.5-1.5-1-2.28-1.49a6.58,6.58,0,0,0-9.86,4.34c-.14.67-.29,1.33-.39,2A2.68,2.68,0,0,1,42.79,71H37.21a2.69,2.69,0,0,1-1.91-2.39c-.12-.8-.32-1.58-.49-2.37a6.81,6.81,0,0,0-2.05-3.36.88.88,0,0,1,0-1.33.91.91,0,0,1,1.3.05l.18.17A8.9,8.9,0,0,1,36.84,67c.1.54.22,1.07.31,1.6a.69.69,0,0,0,.8.64c1.33,0,2.66,0,4,0a.81.81,0,0,0,1-.76,22.15,22.15,0,0,1,.8-3.47,8.38,8.38,0,0,1,12.55-4c.63.4,1.26.81,1.87,1.24a.72.72,0,0,0,1.1-.09c.94-1,1.9-1.93,2.87-2.87a.72.72,0,0,0,.11-1.06A23.2,23.2,0,0,1,60.25,55a8.39,8.39,0,0,1,6.12-11.73c.67-.13,1.34-.28,2-.39a.83.83,0,0,0,.82-1c0-1.29,0-2.58,0-3.87a.81.81,0,0,0-.77-.94A22.44,22.44,0,0,1,65,36.3a8.38,8.38,0,0,1-4-12.55c.42-.64.84-1.29,1.28-1.91a.68.68,0,0,0-.1-1c-1-1-2-2-3-3a.66.66,0,0,0-1-.08c-.65.45-1.31.87-2,1.31a8.1,8.1,0,0,1-5,1.4,4,4,0,0,1-.49,0c-.83-.1-1.19-.43-1.15-1s.46-.87,1.31-.78a6.8,6.8,0,0,0,4.58-1.22c.63-.43,1.27-.86,1.92-1.27a2.23,2.23,0,0,1,2.93.29c1.1,1.07,2.19,2.15,3.25,3.25a2.24,2.24,0,0,1,.28,2.94c-.45.72-.94,1.41-1.4,2.12a6.58,6.58,0,0,0,4.29,10.15c.63.13,1.26.29,1.9.38A2.68,2.68,0,0,1,71,37.21Z"/><path class="cls-1" d="M52.42,29l-7.18,7.18a6.55,6.55,0,0,1,0,7.63L52.47,51a16.28,16.28,0,0,0,3.74-7.33c.14-.6.2-1.23.32-1.84s.52-1,1.07-.88.79.49.71,1.14a18.18,18.18,0,0,1-5.58,11.25A17.65,17.65,0,0,1,44.05,58a18,18,0,0,1-14.53-2.83A17.73,17.73,0,0,1,22,44.05a17.87,17.87,0,0,1,2.82-14.53A17.69,17.69,0,0,1,36,22,18.44,18.44,0,0,1,58.1,36.49c.07.34.13.67.17,1,.09.71-.19,1.16-.76,1.23s-.9-.29-1-.94c-.23-1.07-.42-2.14-.75-3.17A15.28,15.28,0,0,0,52.42,29ZM36.16,34.76a6.56,6.56,0,0,1,7.66,0L51,27.59c-6.15-5.83-16.44-5.4-22,0ZM27.57,29c-6,6.44-5.17,16.74,0,21.9l7.16-7.16A6.27,6.27,0,0,1,33.53,40a6.48,6.48,0,0,1,1.21-3.79ZM29,52.42c6.25,5.89,16.55,5.31,21.91,0l-7.15-7.16a6.51,6.51,0,0,1-7.59,0ZM41.16,40.94H38.77c.21,1.32.28,2.64,1.19,3.72A5.62,5.62,0,0,0,41.16,40.94Zm.05-1.89A6.64,6.64,0,0,0,40,35.28a6.78,6.78,0,0,0-1.19,3.77Zm-3.78,4.78L36.91,41H35.5A4.07,4.07,0,0,0,37.43,43.83Zm5.14,0a4.44,4.44,0,0,0,2-2.91H43.09Zm-5.14-7.72a4.32,4.32,0,0,0-2,2.89h1.44Zm5.14,0,.52,2.9h1.45A4.37,4.37,0,0,0,42.57,36.15Z"/><path class="cls-1" d="M39.07,15.29c0-.35,0-.67.07-1a.79.79,0,0,1,.89-.72.75.75,0,0,1,.82.71,14.86,14.86,0,0,1,0,2.11.77.77,0,0,1-.85.7.79.79,0,0,1-.85-.69A8.68,8.68,0,0,1,39.07,15.29Z"/><path class="cls-1" d="M15.33,40.88a7.69,7.69,0,0,1-1,0,.8.8,0,0,1-.79-.89.77.77,0,0,1,.76-.85,16.51,16.51,0,0,1,2,0,.78.78,0,0,1,.77.85.82.82,0,0,1-.8.88A7.85,7.85,0,0,1,15.33,40.88Z"/><path class="cls-1" d="M64.68,39.08c.32,0,.66,0,1,.05a.79.79,0,0,1,.74.87.77.77,0,0,1-.75.86,16.52,16.52,0,0,1-2,0A.79.79,0,0,1,62.9,40a.82.82,0,0,1,.79-.9C64,39.09,64.33,39.09,64.68,39.08Z"/><path class="cls-1" d="M39.07,64.68a9.81,9.81,0,0,1,.08-1.09A.79.79,0,0,1,40,62.9a.76.76,0,0,1,.85.7,14.29,14.29,0,0,1,0,2.17.72.72,0,0,1-.81.65.79.79,0,0,1-.88-.66A9.81,9.81,0,0,1,39.07,64.68Z"/></svg>