<svg id="Capa_2" data-name="Capa 2" xmlns="http://www.w3.org/2000/svg" viewBox="0 0 80 80"><defs><style>.cls-1{fill:#fff;}</style></defs><title>Mesa de trabajo 3</title><path class="cls-1" d="M74.68,25.77a25.85,25.85,0,0,1-1,3.12,9.68,9.68,0,1,1,.9-5.73,1.11,1.11,0,0,0,.12.3ZM59.33,24.62A5.64,5.64,0,1,0,65,19,5.64,5.64,0,0,0,59.33,24.62Z"/><path class="cls-1" d="M44.64,23.19l-4.16-3.62a2.1,2.1,0,0,1-.84-1.89A2,2,0,0,1,43,16.4c1.68,1.44,3.35,2.9,5,4.35l3,2.57a2.05,2.05,0,0,1,.24,3.2q-3.41,3.94-6.84,7.88a2,2,0,0,1-3,.35,2,2,0,0,1-.08-3c1.07-1.25,2.16-2.49,3.24-3.73l.6-.71c-12.43,1.3-22.86,9.48-27.1,22.62.67.34,1.37.65,2,1a9.69,9.69,0,1,1-6.83-1.29.94.94,0,0,0,.86-.76,37.62,37.62,0,0,1,7.71-13.85,33.69,33.69,0,0,1,15.6-10.2c2.1-.66,4.29-1,6.44-1.53C44.07,23.28,44.29,23.26,44.64,23.19ZM14.91,64.84a5.64,5.64,0,1,0-5.54-5.73A5.64,5.64,0,0,0,14.91,64.84Z"/><path class="cls-1" d="M18.72,19.7l4.81,4.8c.22.23.45.45.66.68A2,2,0,0,1,24.11,28a2,2,0,0,1-2.81,0c-1.38-1.33-2.72-2.7-4.07-4.07-.4-.39-.76-.83-1.17-1.28-.27.25-.45.41-.62.58l-4.7,4.69a2,2,0,0,1-2.18.52,1.94,1.94,0,0,1-1.31-1.59A2.1,2.1,0,0,1,8,24.93l4.59-4.6.5-.53L9.71,16.44,8,14.71a2,2,0,0,1-.16-3.06,2.07,2.07,0,0,1,3,.17c1.7,1.69,3.38,3.38,5.11,5.12l.56-.53c1.56-1.56,3.11-3.14,4.69-4.69a2.08,2.08,0,0,1,2.43-.42,1.91,1.91,0,0,1,1,2.15,3,3,0,0,1-.77,1.31c-1.47,1.53-3,3-4.49,4.51A4.21,4.21,0,0,1,18.72,19.7Z"/><path class="cls-1" d="M45.69,60.11c1.8,1.81,3.49,3.5,5.19,5.19a2.08,2.08,0,0,1,.71,1.94,1.91,1.91,0,0,1-1.35,1.56,2,2,0,0,1-2.12-.51l-4.74-4.74-.53-.5-2.59,2.61L37.91,68c-1.09,1.09-2.33,1.21-3.21.31s-.74-2.11.35-3.21l4.41-4.4.5-.53-.45-.49-4.74-4.74a2,2,0,0,1-.52-2.17,1.91,1.91,0,0,1,1.64-1.34,2.07,2.07,0,0,1,1.82.71l4.6,4.59c.17.18.35.34.58.56l3.94-4c.41-.41.82-.84,1.25-1.24A2,2,0,1,1,50.92,55c-1.48,1.52-3,3-4.5,4.51C46.22,59.69,46,59.87,45.69,60.11Z"/></svg>