<svg id="Capa_2" data-name="Capa 2" xmlns="http://www.w3.org/2000/svg" viewBox="0 0 80 80"><defs><style>.cls-1{fill:#fff;}</style></defs><title>Mesa de trabajo 3 copia 3</title><path class="cls-1" d="M71,62.63c-.31.35-.62.7-1.16.59s-.73-.57-.87-1.06A38.87,38.87,0,0,0,65.53,53c-.87-1.48-1.79-2.93-2.69-4.39S61,45.46,60,43.92a10.19,10.19,0,0,0-1.21-1.58,2.16,2.16,0,0,0-2.41-.5c.43.77.86,1.49,1.25,2.24.29.57.54,1.17.78,1.77a1,1,0,0,1-.49,1.42c-.54.22-1-.05-1.31-.72a16.22,16.22,0,0,0-3.08-5.1,20.89,20.89,0,0,0-1.64-1.62,1.86,1.86,0,0,0-2.57.05c.09.18.18.37.29.56l3.66,6.48a3.08,3.08,0,0,1,.28.54.94.94,0,0,1-.44,1.2.9.9,0,0,1-1.23-.29A2.8,2.8,0,0,1,51.6,48q-2.12-3.75-4.24-7.48c-.77-1.36-1.8-1.51-3-.47a1.08,1.08,0,0,0-.28,1.6l4.56,8.88c.11.22.23.44.32.66a.91.91,0,0,1-.41,1.2A1,1,0,0,1,47.3,52c-.11-.16-.19-.35-.29-.53q-4.57-8.67-9.18-17.33a21.76,21.76,0,0,0-1.32-2.1c-.24-.35-.53-.71-1-.42s-.75.7-.49,1.27c2.24,5,4.53,9.91,6.73,14.9C43.19,51.18,44.55,54.59,46,58a1,1,0,0,1-.48,1.32.92.92,0,0,1-1.29-.63,2.87,2.87,0,0,0-2-2.17,4.23,4.23,0,0,1-1.34-.92A7.53,7.53,0,0,0,34.67,54a2.1,2.1,0,0,0-1,.5.93.93,0,0,0,.12,1.54,9.65,9.65,0,0,0,1.64.89,13.92,13.92,0,0,1,5.24,3.41C43,63,45.9,64.68,48.74,66.57A14.7,14.7,0,0,0,56,69.09a1.29,1.29,0,0,1,.89.66c.26.53-.13.94-.56,1.25H55.13a30.26,30.26,0,0,1-3-.61,15.16,15.16,0,0,1-2.86-1.26c-1.53-.88-3-1.89-4.51-2.81a22.23,22.23,0,0,1-4.62-3.8,14.19,14.19,0,0,0-5.59-3.82,7.55,7.55,0,0,1-1.84-1,2.94,2.94,0,0,1,.1-5A4.81,4.81,0,0,1,35.32,52a9.44,9.44,0,0,1,6.77,2.1l.14.11a.88.88,0,0,0,.24.05c-.75-1.7-1.45-3.35-2.19-5q-3.48-7.67-7-15.3c-.09-.19-.15-.38-.22-.57a2.92,2.92,0,0,1,2.8-3.79,2.45,2.45,0,0,1,2.07,1.2c1.11,1.77,2.19,3.57,3.26,5.38.51.86,1,1.76,1.38,2.52a23.66,23.66,0,0,1,2.74-1.24,2.84,2.84,0,0,1,2.72.71,16.21,16.21,0,0,1,2.08-.73,3.18,3.18,0,0,1,2.73.68c.66.56,1.26,1.2,1.91,1.77a.79.79,0,0,0,.64.16,4.45,4.45,0,0,1,5.31,1.51,5.74,5.74,0,0,1,.51.68c2,3.24,4,6.47,6,9.74a39,39,0,0,1,3.53,9.24c.06.23.16.45.24.67Z"/><path class="cls-1" d="M21.22,39.18,29.36,31c.73-.74,1.27-.84,1.75-.34s.34,1-.37,1.71L22.6,40.52c.74.73,1.42,1.46,2.17,2.11.17.15.58.1.86,0a18.93,18.93,0,0,0,5.45-1.92c.61-.32,1.2-.67,1.8-1a1,1,0,0,1,1.41.33.94.94,0,0,1-.44,1.33q-2.07,1.08-4.17,2.07a.64.64,0,0,0-.47.76c.19,1.94.34,3.89.53,6,1-.83,2-1.53,2.87-2.31s1.5-1.48,2.24-2.22c.54-.55,1.09-.61,1.53-.18s.38,1-.15,1.54a23.48,23.48,0,0,1-6.62,5.32c-1.06.53-1.64.19-1.73-1-.19-2.36-.4-4.71-.6-7.06-.82.13-1.6.23-2.37.36a1.28,1.28,0,0,1-1.24-.43c-.77-.8-1.56-1.58-2.48-2.52-.32.38-.59.75-.92,1.07a1,1,0,0,1-1.44.09,1,1,0,0,1,.09-1.45c.31-.32.66-.59,1-.92-.87-.87-1.64-1.67-2.44-2.43a1.4,1.4,0,0,1-.46-1.36c.14-.73.23-1.47.36-2.29l-2.05-.2c-1.64-.14-3.29-.29-4.94-.41-1.22-.09-1.59-.68-1.05-1.76A19.42,19.42,0,0,1,14,26.22c1.5-1.34,3-2.66,4.66-3.85a7.83,7.83,0,0,1,6.13-1.16,1.16,1.16,0,0,0,1.16-.38A40,40,0,0,1,36,13.6,41.1,41.1,0,0,1,47.43,9.22,14,14,0,0,1,50.79,9c1.28.07,1.83.76,1.93,2.06A14.07,14.07,0,0,1,52,16.15a51.72,51.72,0,0,1-8.43,16.71c-.09.11-.17.22-.27.33a1,1,0,0,1-1.39.19A1,1,0,0,1,41.8,32c1.17-1.7,2.4-3.35,3.48-5.1a44.45,44.45,0,0,0,4.14-9,1,1,0,0,0-.1-.81,18.34,18.34,0,0,0-4.69-4.69,1,1,0,0,0-.75-.13,44.08,44.08,0,0,0-16.15,9.5A31.72,31.72,0,0,0,20,33a31.94,31.94,0,0,0-.88,3.08,1.1,1.1,0,0,0,.37,1.23C20.06,37.9,20.6,38.53,21.22,39.18Zm2.63-16.13c-.33,0-.55-.06-.76-.06A6.27,6.27,0,0,0,19.3,24.2a34.36,34.36,0,0,0-6.08,5.6c-.58.67-1.07,1.43-1.66,2.22l6.5.55A33.71,33.71,0,0,1,23.85,23.05Zm26.57-8.14c.15-1.11.34-2.24.44-3.38,0-.21-.23-.64-.4-.66a9.51,9.51,0,0,0-3.59.45Z"/><path class="cls-1" d="M38.43,18.33a5,5,0,0,1,0,10,5,5,0,1,1,0-10Zm0,1.94a3,3,0,1,0,3,3.06A3,3,0,0,0,38.46,20.27Z"/><path class="cls-1" d="M16.93,45.87a4.41,4.41,0,0,1-.51.84c-1.81,1.84-3.63,3.66-5.46,5.49a1,1,0,1,1-1.38-1.36C11.39,49,13.22,47.19,15,45.36a.93.93,0,0,1,1.19-.29A3.49,3.49,0,0,1,16.93,45.87Z"/><path class="cls-1" d="M22,47.2a5.23,5.23,0,0,1-.54.86c-1.52,1.54-3,3.06-4.58,4.58a1,1,0,0,1-1.49.1,1,1,0,0,1,.11-1.45c1.53-1.55,3.08-3.09,4.62-4.63.32-.32.72-.53,1.13-.27A3.68,3.68,0,0,1,22,47.2Z"/><path class="cls-1" d="M10.14,46.37c-.89,0-1.36-.74-1-1.37a1.87,1.87,0,0,1,.37-.47l4.18-4.2c.56-.55,1.09-.62,1.53-.19s.41,1-.17,1.58c-1.39,1.4-2.78,2.8-4.19,4.18A3.5,3.5,0,0,1,10.14,46.37Z"/></svg>