<svg id="Capa_2" data-name="Capa 2" xmlns="http://www.w3.org/2000/svg" viewBox="0 0 80 80"><defs><style>.cls-1{fill:#fff;}</style></defs><title>Mesa de trabajo 3 copia</title><path class="cls-1" d="M64.17,65.11l-9.59.1H52v6H28v-8H19.89V59.4h8v-4H52v5.9h8.31V42.92c-2,0-4,.13-5.92,0a9.85,9.85,0,0,0-6.72,1.86c-2.11,1.46-4.41,2.63-6.57,4a1.62,1.62,0,0,1-2,0c-2.75-1.71-5.52-3.4-8.34-5A6.19,6.19,0,0,0,27.88,43c-3.53-.1-7.07,0-10.6,0H15.83v-26h12V10.79H52V26.63H27.89V20.75H19.62V39.11c3.26,0,6.44,0,9.63,0a2.32,2.32,0,0,0,1-.47c3-1.76,5.94-3.51,8.86-5.33a1.58,1.58,0,0,1,1.92,0c2.93,1.81,5.9,3.57,8.87,5.32a3,3,0,0,0,1.38.47c4.3,0,8.59,0,12.88,0ZM48.11,22.87v-8.2H31.83v8.2Zm0,44.54V59.2H31.82v8.21ZM33.64,40.92c2.12,1.27,4,2.4,5.87,3.49a1.2,1.2,0,0,0,1,.05c1.95-1.11,3.88-2.29,6-3.54-2.13-1.28-4.1-2.47-6.08-3.64a.79.79,0,0,0-.67,0C37.75,38.44,35.79,39.63,33.64,40.92Z"/><path class="cls-1" d="M38.11,16.91H42v3.66h-3.9Z"/><path class="cls-1" d="M38.13,61.48c.3,0,.5-.07.71-.08,3.53-.14,3.64,0,3.15,3.7H38.13Z"/></svg>