<?xml version="1.0" encoding="UTF-8"?>
<svg id="Capa_2" data-name="Capa 2" xmlns="http://www.w3.org/2000/svg" viewBox="0 0 86.27 86.13">
  <defs>
    <style>
      .cls-1 {
        fill: #fff;
        stroke-width: 0px;
      }
    </style>
  </defs>
  <g id="Capa_2-2" data-name="Capa 2">
    <g>
      <path class="cls-1" d="m86.27,74.51c-.43.49-.86.97-1.62.82-.79-.16-1.01-.79-1.21-1.46-1.25-4.4-2.45-8.82-4.79-12.8-1.21-2.06-2.49-4.07-3.74-6.1-1.32-2.15-2.63-4.31-3.99-6.44-.49-.78-1.05-1.53-1.68-2.2-.92-.97-2.07-1.1-3.36-.69.6,1.06,1.21,2.07,1.74,3.1.41.8.76,1.63,1.08,2.46.36.92.08,1.66-.68,1.97-.75.31-1.46-.06-1.82-.99-1.02-2.61-2.4-5.01-4.29-7.09-.72-.79-1.47-1.56-2.27-2.25-1.11-.95-2.34-.91-3.58.06.13.25.25.52.4.78,1.7,3,3.4,6.01,5.1,9.01.14.24.3.48.39.75.21.69.06,1.3-.6,1.66-.67.36-1.25.17-1.72-.4-.14-.17-.23-.38-.35-.58-1.97-3.46-3.93-6.93-5.9-10.39-1.07-1.88-2.51-2.1-4.13-.65-.83.74-.92,1.21-.39,2.22,2.12,4.12,4.23,8.23,6.35,12.35.15.3.31.6.43.91.29.71.06,1.27-.56,1.67-.59.37-1.36.17-1.78-.43-.16-.23-.27-.49-.4-.74-4.25-8.03-8.5-16.06-12.77-24.08-.54-1.01-1.2-1.96-1.85-2.91-.33-.49-.73-.98-1.45-.58-.8.44-1.04.98-.68,1.77,3.12,6.9,6.31,13.77,9.37,20.69,2.06,4.66,3.96,9.4,5.91,14.11.33.81.02,1.55-.66,1.84-.74.31-1.56,0-1.81-.87-.43-1.5-1.2-2.52-2.76-3.01-.69-.22-1.27-.8-1.86-1.28-2.53-2.09-5.46-2.64-8.62-2.18-.49.07-1.02.36-1.4.69-.72.64-.64,1.62.16,2.14.72.47,1.49.91,2.29,1.23,2.74,1.1,5.3,2.54,7.28,4.74,3.23,3.59,7.29,6,11.25,8.62,3.12,2.07,6.41,3.26,10.11,3.5.44.03,1.03.5,1.24.92.37.75-.17,1.3-.77,1.74h-1.69c-1.4-.27-2.84-.43-4.19-.85-1.37-.43-2.73-1.02-3.98-1.74-2.14-1.23-4.18-2.63-6.29-3.92-2.39-1.46-4.52-3.22-6.42-5.28-2.19-2.37-4.73-4.19-7.79-5.3-.91-.33-1.77-.86-2.56-1.43-2.48-1.78-2.39-5.16.15-6.88,1.06-.72,2.26-.98,3.51-1.03,3.48-.14,6.69.61,9.41,2.92.06.05.13.11.2.15.04.02.1.02.32.07-1.04-2.37-2.01-4.65-3.04-6.91-3.23-7.09-6.49-14.17-9.73-21.26-.12-.25-.21-.52-.3-.79-.89-2.51,1.21-5.35,3.9-5.26,1.26.04,2.23.63,2.87,1.66,1.55,2.47,3.05,4.97,4.54,7.48.71,1.2,1.35,2.45,1.92,3.51,1.31-.6,2.51-1.32,3.81-1.72,1.43-.44,2.76.09,3.79.98,1.02-.37,1.93-.82,2.9-1.02,1.37-.27,2.71.04,3.8.95.92.77,1.74,1.66,2.65,2.45.21.18.65.31.9.23,3-.99,5.37-.34,7.39,2.09.25.3.5.61.71.94,2.79,4.51,5.62,8.99,8.36,13.53,2.4,3.98,3.61,8.43,4.91,12.85.09.32.23.62.34.93v1.01Z"/>
      <path class="cls-1" d="m17,41.92c3.86-3.86,7.59-7.59,11.32-11.33,1.03-1.03,1.77-1.17,2.43-.47.64.67.49,1.38-.51,2.38-3.74,3.73-7.47,7.46-11.31,11.29,1.02,1.01,1.97,2.03,3.02,2.94.24.21.8.14,1.19.07,2.68-.46,5.18-1.44,7.59-2.68.85-.44,1.66-.93,2.5-1.39.8-.43,1.58-.25,1.96.46.37.67.18,1.44-.61,1.85-1.91,1-3.84,1.96-5.79,2.88-.51.24-.72.47-.66,1.05.26,2.7.48,5.4.73,8.37,1.45-1.15,2.77-2.12,4-3.21,1.09-.96,2.08-2.05,3.11-3.08.76-.76,1.52-.85,2.13-.26.61.59.53,1.35-.21,2.14-2.72,2.9-5.58,5.61-9.2,7.4-1.48.73-2.29.26-2.42-1.4-.26-3.27-.55-6.54-.83-9.81-1.15.17-2.22.32-3.29.51-.71.13-1.25-.09-1.74-.6-1.07-1.12-2.16-2.2-3.45-3.51-.45.53-.82,1.05-1.27,1.5-.66.66-1.45.68-2.01.11-.55-.56-.53-1.36.12-2.01.43-.44.92-.82,1.44-1.27-1.22-1.22-2.29-2.32-3.4-3.38-.56-.53-.79-1.11-.64-1.88.19-1.02.32-2.05.5-3.19-.92-.09-1.88-.19-2.84-.27-2.29-.2-4.59-.4-6.88-.57-1.7-.12-2.2-.95-1.46-2.45,1.57-3.16,3.76-5.86,6.38-8.19,2.09-1.86,4.22-3.7,6.48-5.35,2.54-1.85,5.5-2.12,8.54-1.61.69.11,1.13-.04,1.61-.54,4.07-4.16,8.86-7.32,13.96-10.03,5.07-2.7,10.31-4.99,15.98-6.09,1.52-.29,3.12-.36,4.67-.28,1.78.09,2.55,1.05,2.68,2.85.18,2.42-.32,4.76-1,7.05-2.5,8.45-6.4,16.2-11.73,23.21-.12.16-.24.31-.37.46-.59.65-1.33.76-1.94.27-.59-.48-.65-1.23-.15-1.95,1.62-2.36,3.34-4.65,4.84-7.09,2.41-3.93,4.29-8.13,5.77-12.5.11-.33.04-.84-.15-1.12-1.78-2.56-3.94-4.74-6.51-6.51-.27-.19-.76-.29-1.05-.19-8.31,2.99-16.05,7-22.47,13.21-4.64,4.49-8.46,9.6-10.81,15.68-.53,1.38-.83,2.85-1.22,4.28-.18.67-.06,1.21.51,1.72.85.76,1.61,1.64,2.47,2.53Zm3.66-22.4c-.47-.04-.76-.09-1.06-.09-1.95-.03-3.7.58-5.27,1.68-3.17,2.21-5.91,4.89-8.45,7.79-.82.93-1.5,1.98-2.32,3.09,3.16.27,6.08.51,9.05.76,1.93-4.85,4.59-9.19,8.06-13.22Zm36.97-11.31c.21-1.55.47-3.12.62-4.7.03-.3-.32-.89-.56-.92-1.79-.23-3.5.25-5,.62,1.6,1.62,3.22,3.25,4.94,5Z"/>
      <path class="cls-1" d="m40.95,12.96c3.84,0,6.9,3.05,6.91,6.89.01,3.83-3.05,6.94-6.86,6.96-3.84.02-6.98-3.11-6.97-6.95,0-3.82,3.09-6.89,6.92-6.89Zm.04,2.7c-2.36-.01-4.25,1.84-4.26,4.18-.01,2.34,1.86,4.25,4.19,4.27,2.34.02,4.24-1.85,4.25-4.2.01-2.37-1.83-4.24-4.18-4.25Z"/>
      <path class="cls-1" d="m11.04,51.22c-.29.48-.43.89-.71,1.17-2.52,2.55-5.06,5.09-7.6,7.62-.69.69-1.51.72-2.08.13-.54-.56-.5-1.36.15-2.01,2.53-2.54,5.07-5.08,7.61-7.62.48-.48,1.05-.76,1.66-.4.39.23.63.7.98,1.11Z"/>
      <path class="cls-1" d="m18.13,53.07c-.32.51-.48.91-.76,1.19-2.11,2.14-4.24,4.26-6.37,6.37-.71.7-1.5.73-2.07.14-.54-.56-.5-1.35.15-2.01,2.13-2.15,4.28-4.29,6.43-6.43.45-.45,1-.74,1.58-.38.4.25.67.72,1.04,1.13Z"/>
      <path class="cls-1" d="m1.59,51.92c-1.24-.01-1.89-1.04-1.45-1.91.12-.24.32-.46.51-.65,1.94-1.95,3.87-3.89,5.82-5.83.78-.77,1.52-.86,2.13-.27.64.61.56,1.39-.24,2.2-1.94,1.94-3.88,3.89-5.83,5.81-.32.32-.75.52-.94.66Z"/>
    </g>
  </g>
</svg>